<svg xmlns="http://www.w3.org/2000/svg" xmlns:xlink="http://www.w3.org/1999/xlink" width="430" height="488" viewBox="0 0 430 488"><defs><style>.a,.c{fill:#fff;}.a{stroke:#707070;}.b{clip-path:url(#a);}.c{stroke:#fff;}</style><clipPath id="a"><rect class="a" width="430" height="488" transform="translate(-177 259)"/></clipPath></defs><g class="b" transform="translate(177 -259)"><g transform="translate(-494.84 -2331)"><path class="c" d="M355.05,290.58l64.47-82.86h-1.78l-64.47,82.86Z" transform="translate(-72.43 2587.28)"/><path class="c" d="M355.05,290.58l64.47-82.86h-1.78l-64.47,82.86Z" transform="translate(27.57 2587.28)"/><path class="c" d="M355.05,290.58l64.47-82.86h-1.78l-64.47,82.86Z" transform="translate(127.48 2587.28)"/><path class="c" d="M355.05,290.58l64.47-82.86h-1.78l-64.47,82.86Z" transform="translate(227.48 2587.28)"/><path class="c" d="M355.05,290.58l64.47-82.86h-1.78l-64.47,82.86Z" transform="translate(327.48 2587.28)"/><path class="c" d="M355.05,290.58l64.47-82.86h-1.78l-64.47,82.86Z" transform="translate(-72.43 2687.28)"/><path class="c" d="M355.05,290.58l64.47-82.86h-1.78l-64.47,82.86Z" transform="translate(27.57 2687.28)"/><path class="c" d="M355.05,290.58l64.47-82.86h-1.78l-64.47,82.86Z" transform="translate(127.48 2687.28)"/><path class="c" d="M355.05,290.58l64.47-82.86h-1.78l-64.47,82.86Z" transform="translate(227.48 2687.28)"/><path class="c" d="M355.05,290.58l64.47-82.86h-1.78l-64.47,82.86Z" transform="translate(327.48 2687.28)"/><path class="c" d="M355.05,290.58l64.47-82.86h-1.78l-64.47,82.86Z" transform="translate(-72.43 2387.28)"/><path class="c" d="M355.05,290.58l64.47-82.86h-1.78l-64.47,82.86Z" transform="translate(27.57 2387.28)"/><path class="c" d="M355.05,290.58l64.47-82.86h-1.78l-64.47,82.86Z" transform="translate(127.48 2387.28)"/><path class="c" d="M355.05,290.58l64.47-82.86h-1.78l-64.47,82.86Z" transform="translate(227.48 2387.28)"/><path class="c" d="M355.05,290.58l64.47-82.86h-1.78l-64.47,82.86Z" transform="translate(327.48 2387.28)"/><path class="c" d="M355.05,290.58l64.47-82.86h-1.78l-64.47,82.86Z" transform="translate(-72.43 2487.28)"/><path class="c" d="M355.05,290.58l64.47-82.86h-1.78l-64.47,82.86Z" transform="translate(27.57 2487.28)"/><path class="c" d="M355.05,290.58l64.47-82.86h-1.78l-64.47,82.86Z" transform="translate(127.48 2487.28)"/><path class="c" d="M355.05,290.58l64.47-82.86h-1.78l-64.47,82.86Z" transform="translate(227.48 2487.28)"/><path class="c" d="M355.05,290.58l64.47-82.86h-1.78l-64.47,82.86Z" transform="translate(327.48 2487.28)"/><path class="c" d="M355.05,290.58l64.47-82.86h-1.78l-64.47,82.86Z" transform="translate(-72.43 2787.28)"/><path class="c" d="M355.05,290.58l64.47-82.86h-1.78l-64.47,82.86Z" transform="translate(27.57 2787.28)"/><path class="c" d="M355.05,290.58l64.47-82.86h-1.78l-64.47,82.86Z" transform="translate(127.48 2787.28)"/><path class="c" d="M355.05,290.58l64.47-82.86h-1.78l-64.47,82.86Z" transform="translate(227.48 2787.28)"/><path class="c" d="M355.05,290.58l64.47-82.86h-1.78l-64.47,82.86Z" transform="translate(327.48 2787.28)"/></g></g></svg>