<?xml version="1.0" encoding="UTF-8" standalone="no"?>
<svg
   xmlns:dc="http://purl.org/dc/elements/1.1/"
   xmlns:cc="http://creativecommons.org/ns#"
   xmlns:rdf="http://www.w3.org/1999/02/22-rdf-syntax-ns#"
   xmlns:svg="http://www.w3.org/2000/svg"
   xmlns="http://www.w3.org/2000/svg"
   id="svg27698"
   version="1.1"
   viewBox="0 0 135.46666 14.111111"
   height="14.111111mm"
   width="135.46666mm">
  <defs
     id="defs27692" />
  <metadata
     id="metadata27695">
    <rdf:RDF>
      <cc:Work
         rdf:about="">
        <dc:format>image/svg+xml</dc:format>
        <dc:type
           rdf:resource="http://purl.org/dc/dcmitype/StillImage" />
        <dc:title></dc:title>
      </cc:Work>
    </rdf:RDF>
  </metadata>
  <g
     transform="translate(-41.879761,-114.56349)"
     id="layer1">
    <g
       transform="translate(-0.03344173,0.00895534)"
       id="g27781">
      <path
         id="path27787"
         d="m 49.763643,127.1753 c -0.519426,-0.82462 -2.505793,-3.9275 -4.414147,-6.89528 -1.908354,-2.96779 -3.469735,-5.4681 -3.469735,-5.55625 0,-0.0882 0.992187,-0.15938 2.204861,-0.15827 l 2.204861,0.002 3.043785,4.9361 3.043785,4.9361 2.946281,-4.93811 2.946282,-4.9381 h 2.046894 c 2.434235,0 2.764386,-0.94979 -2.738139,7.87717 l -3.880555,6.22504 -1.49488,0.004 c -1.377207,0.004 -1.569222,-0.11357 -2.439293,-1.49485 z m 15.752228,-5.55625 v -7.05556 h 8.290277 8.290278 v 1.23472 1.23472 h -6.35 -6.35 v 1.5875 1.5875 h 3.704167 3.704166 v 1.41112 1.41111 h -3.704166 -3.704167 v 1.40315 1.40315 l 6.438194,0.0961 6.438195,0.0962 0.109491,1.32291 0.109488,1.32292 h -8.487961 -8.487962 z m 21.872221,0 v -7.05556 h 7.713535 c 7.269403,0 7.767053,0.0421 8.643053,0.73116 0.86976,0.68415 0.92952,0.91798 0.92952,3.63674 0,3.59736 -0.31016,4.077 -2.98137,4.61038 l -2.031391,0.40563 2.770961,2.0605 c 1.52403,1.13328 2.92178,2.1969 3.10611,2.3636 0.18996,0.1718 -0.80847,0.3031 -2.30485,0.3031 h -2.63999 l -2.986816,-2.45755 C 94.851568,123.95 94.49014,123.75858 92.944342,123.74761 l -1.675695,-0.0119 v 2.46945 2.46944 H 89.32837 87.388092 Z m 13.425438,-1.44826 c 0.2227,-0.41613 0.29869,-1.26929 0.17281,-1.94028 l -0.22467,-1.19758 h -4.746507 -4.746516 v 1.94028 1.94028 h 4.573701 c 4.288892,0 4.598452,-0.0463 4.971182,-0.7427 z m 9.15234,1.44826 v -7.05556 l 1.85208,0.0121 1.85209,0.0121 3.30607,3.86851 c 1.81834,2.12767 3.43502,3.8685 3.59263,3.8685 0.15761,0 1.7655,-1.74142 3.57309,-3.86982 l 3.28654,-3.86982 2.02847,-0.0107 2.02847,-0.0107 v 7.05556 7.05555 h -1.94028 -1.94027 v -4.77072 -4.77072 l -3.43959,3.94976 c -1.89177,2.17237 -3.60972,4.00549 -3.81766,4.0736 -0.20795,0.0681 -1.79545,-1.56922 -3.52778,-3.63852 l -3.14969,-3.76237 -0.0987,4.45949 -0.0987,4.45948 h -1.75335 -1.75335 z m 26.81111,0 v -7.05556 h 8.29028 8.29027 v 1.23472 1.23472 h -6.35 -6.35 v 1.5875 1.5875 h 3.72547 3.72546 l -0.10949,1.32292 -0.10949,1.32292 -3.61597,0.10053 -3.61598,0.10054 v 1.39877 1.39877 h 6.35 6.35 v 1.41111 1.41111 h -8.29027 -8.29028 z m 22.2506,6.12603 c -0.6673,-0.84833 -0.73116,-1.40072 -0.73116,-6.32439 v -5.39488 l 0.92952,-0.73116 c 0.87681,-0.6897 1.37251,-0.73116 8.74095,-0.73116 8.96249,0 9.37953,0.10855 9.37953,2.4415 0,1.32894 -0.0172,1.34551 -1.62401,1.56575 -1.86084,0.25506 -2.25654,0.10546 -2.25654,-0.85307 0,-0.64926 -0.2924,-0.68474 -5.64445,-0.68474 h -5.64444 v 4.58612 4.58611 h 5.64444 5.64445 v -1.5875 -1.5875 h -2.99862 -2.99861 v -1.23473 -1.23472 h 4.93889 4.93889 v 3.35139 c 0,4.99775 0.46923,4.7625 -9.49939,4.7625 h -8.08829 z"
         style="fill:#e6e6e6;fill-opacity:1;stroke-width:0.35277778" />
      <path
         id="path27785"
         d="m 47.347241,123.15175 c -1.939961,-3.03757 -3.964056,-6.21257 -4.497989,-7.05556 l -0.970787,-1.5327 h 2.095033 2.095033 l 3.084725,4.94561 c 1.696599,2.72009 3.217421,4.81292 3.379605,4.65073 0.162183,-0.16218 1.540826,-2.34802 3.06365,-4.85741 l 2.768771,-4.56254 1.982899,-0.10565 1.982898,-0.10566 -4.432463,7.07302 -4.432463,7.07301 h -1.295855 c -1.287237,0 -1.319314,-0.0367 -4.823057,-5.52285 z m 18.521408,-1.5327 v -7.05556 h 8.113888 8.113889 v 1.23472 1.23472 h -6.35 -6.35 v 1.5875 1.5875 h 3.704167 3.704166 v 1.23473 1.23472 h -3.704166 -3.704167 v 1.76389 1.76389 h 6.35 6.35 v 1.23472 1.23472 h -8.113889 -8.113888 z m 21.519443,-0.0188 v -7.07431 l 7.925615,0.10695 c 9.487503,0.12804 9.116343,-0.0353 9.303853,4.09367 0.16761,3.69098 -0.37001,4.40322 -3.51357,4.65477 l -2.223986,0.17796 3.323906,2.46945 3.3239,2.46944 -2.36869,0.10435 -2.3687,0.10435 -3.244166,-2.66199 c -2.922831,-2.39831 -3.394407,-2.66199 -4.760888,-2.66199 h -1.516719 v 2.64584 2.64583 H 89.32837 87.388092 v -7.07431 z m 13.581948,-2.62707 v -1.76389 l -4.850698,-0.0982 -4.850695,-0.0982 v 1.96019 1.96019 l 4.850695,-0.0982 4.850698,-0.0982 z m 8.99583,2.64584 v -7.05556 h 1.74234 1.74233 l 3.46114,4.05632 c 1.90362,2.23098 3.54051,4.05633 3.63752,4.05633 0.097,0 1.7339,-1.82535 3.63752,-4.05633 l 3.46114,-4.05632 h 1.74234 1.74233 v 7.05556 7.05555 h -1.75393 -1.75393 l -0.0981,-4.78996 -0.0982,-4.78996 -3.34473,3.90801 c -1.83961,2.14941 -3.54033,3.90802 -3.77939,3.90802 -0.23906,0 -1.90893,-1.7445 -3.71082,-3.87667 l -3.27617,-3.87667 -0.0982,4.75862 -0.0982,4.75861 h -1.57755 -1.57754 z m 26.81111,0 v -7.05556 h 8.31263 8.31263 l -0.11055,1.14653 -0.11055,1.14653 -6.2618,0.0963 -6.26181,0.0963 v 1.57936 1.57936 h 3.70417 3.70417 v 1.23473 1.23472 h -3.70417 -3.70417 v 1.76389 1.76389 h 6.35 6.35 v 1.23472 1.23472 h -8.29027 -8.29028 z m 23.0385,6.70888 c -1.21775,-0.50588 -1.59214,-2.4715 -1.46063,-7.66859 0.0987,-3.90021 0.22073,-4.76428 0.74721,-5.29051 0.55938,-0.55912 1.5089,-0.64082 8.55215,-0.73589 l 7.92291,-0.10693 0.88465,0.88465 c 1.13862,1.13862 1.18577,2.60582 0.0909,2.82887 -2.54458,0.51839 -2.73403,0.49251 -2.73403,-0.37357 v -0.83303 h -5.82083 -5.82083 v 4.58612 4.58611 h 5.82083 5.82083 v -1.5875 -1.5875 h -3.175 -3.175 v -1.23473 -1.23472 h 4.93889 4.93889 v 3.13592 c 0,4.97013 0.34363,4.78498 -9.05226,4.87721 -4.23757,0.0416 -8.05298,-0.0691 -8.47868,-0.24591 z"
         style="fill:#8c8c8c;fill-opacity:1;stroke-width:0.35277778" />
      <path
         id="path27783"
         d="m 50.222337,127.35168 c -0.461173,-0.7276 -2.44754,-3.83168 -4.414148,-6.89796 -1.966607,-3.06627 -3.57565,-5.64596 -3.57565,-5.73264 0,-0.0867 0.833437,-0.1555 1.852083,-0.15295 l 1.852083,0.005 3.174458,5.11785 c 2.8433,4.58396 3.223144,5.0527 3.641174,4.49328 0.256695,-0.34352 1.684704,-2.64864 3.173354,-5.12249 l 2.706637,-4.49792 h 1.689149 c 2.013624,0 2.366392,-0.89816 -3.09403,7.8775 -3.731671,5.99731 -3.922065,6.23361 -5.022657,6.23361 -0.937654,0 -1.295172,-0.23858 -1.982453,-1.32292 z m 15.646312,-5.73263 v -7.05556 h 8.113888 8.113889 v 1.05833 1.05834 h -6.35 -6.35 v 1.76389 1.76388 h 3.704167 3.704166 v 1.23473 1.23472 h -3.704166 -3.704167 v 1.76389 1.76389 h 6.35 6.35 v 1.23472 1.23472 h -8.113889 -8.113888 z m 21.872221,-0.0251 v -7.08065 l 7.548474,0.11329 c 9.282516,0.13931 9.034796,0.021 9.026676,4.3131 -0.003,1.57066 -0.12526,3.04425 -0.27176,3.27465 -0.4033,0.63426 -2.07096,1.16859 -3.64718,1.16859 -0.880224,0 -1.324375,0.13687 -1.183553,0.36472 0.123973,0.2006 1.586303,1.39122 3.249613,2.64584 l 3.02422,2.28111 h -2.22375 -2.22374 l -3.256077,-2.64583 c -3.106127,-2.52399 -3.339243,-2.64584 -5.061998,-2.64584 H 90.91587 v 2.64584 2.64583 h -1.5875 -1.5875 z m 13.40555,-2.61402 c 0,-2.37495 0.0219,-2.36656 -5.820828,-2.22555 l -4.233333,0.10217 -0.105798,2.02847 -0.105802,2.02847 h 5.132885 5.132876 z m 8.81945,2.63912 v -7.05556 h 1.74636 c 1.11454,0 1.84842,0.17635 2.02847,0.48742 0.15516,0.26809 1.75882,2.17702 3.56368,4.24208 l 3.28157,3.75466 3.5976,-4.23117 3.5976,-4.23118 1.67569,-0.0109 1.67569,-0.0109 v 7.05556 7.05555 h -1.7542 -1.7542 l -0.0979,-4.89628 -0.0979,-4.89628 -3.46796,4.03428 c -1.90738,2.21885 -3.59246,3.98561 -3.74463,3.92614 -0.15216,-0.0595 -1.76658,-1.84592 -3.58759,-3.96988 l -3.31093,-3.86174 -0.0982,4.83188 -0.0982,4.83188 h -1.57755 -1.57754 z m 27.16389,0 v -7.05556 h 7.9375 7.9375 v 1.05019 1.0502 l -6.26181,0.0963 -6.2618,0.0963 -0.10753,1.67569 -0.10752,1.67569 h 3.72349 3.7235 v 1.23473 1.23472 h -3.70417 -3.70416 v 1.76389 1.76389 h 6.52638 6.52639 v 1.23472 1.23472 h -8.11389 -8.11388 z m 23.45972,6.80182 c -1.81441,-0.44202 -1.94028,-0.88329 -1.94028,-6.80182 0,-7.37885 -0.65927,-6.84351 8.61788,-6.99785 8.50529,-0.1415 9.72656,0.13137 9.72656,2.17325 0,1.07144 -0.12513,1.23365 -1.10243,1.42911 -1.80843,0.36169 -2.07257,0.2763 -2.07257,-0.66999 v -0.89047 l -5.90902,0.0967 -5.90903,0.0967 -0.0984,4.6743 -0.0984,4.67431 h 6.00746 6.00746 v -1.5875 -1.5875 h -2.99861 -2.99861 v -1.23473 -1.23472 h 4.79655 4.79656 l -0.12225,3.33434 c -0.0674,1.83687 -0.30092,3.51274 -0.52009,3.73159 -0.21881,0.21849 -1.01256,0.53987 -1.76389,0.71419 -1.39896,0.32458 -13.14736,0.38979 -14.41882,0.08 z"
         style="fill:#333333;fill-opacity:1;stroke-width:0.35277778" />
    </g>
  </g>
</svg>
